<svg width="14" height="13" viewBox="0 0 14 13" fill="none" xmlns="http://www.w3.org/2000/svg">
<path d="M7.20911 10.8774C7.0811 10.7992 6.92011 10.7992 6.7921 10.8774L3.41295 12.9413C3.10931 13.1268 2.73281 12.8533 2.81536 12.5072L3.7341 8.6556C3.76891 8.5097 3.71916 8.35659 3.60524 8.25901L0.598056 5.68302C0.327841 5.45155 0.471651 5.00895 0.826312 4.98052L4.77329 4.66409C4.92281 4.6521 5.05305 4.55747 5.11066 4.41898L6.63127 0.762978C6.76791 0.43446 7.23329 0.43446 7.36993 0.762979L8.89053 4.41898C8.94813 4.55747 9.07837 4.6521 9.22789 4.66409L13.1749 4.98052C13.5296 5.00895 13.6734 5.45155 13.4032 5.68302L10.396 8.25901C10.2821 8.35659 10.2323 8.5097 10.2671 8.6556L11.1859 12.5072C11.2684 12.8533 10.8919 13.1268 10.5883 12.9414L7.20911 10.8774ZM6.7921 9.11966C6.92011 9.04147 7.0811 9.04147 7.20911 9.11966L8.2924 9.78135C8.59603 9.96682 8.97254 9.69328 8.88999 9.34719L8.59546 8.11245C8.56066 7.96655 8.61041 7.81344 8.72432 7.71586L9.68837 6.89004C9.95858 6.65857 9.81477 6.21597 9.46012 6.18754L8.19476 6.08608C8.04525 6.07409 7.91501 5.97946 7.8574 5.84097L7.36993 4.66893C7.2333 4.34041 6.76791 4.34041 6.63127 4.66893L6.1438 5.84097C6.0862 5.97946 5.95596 6.07409 5.80644 6.08608L4.54108 6.18754C4.18642 6.21597 4.04261 6.65857 4.31282 6.89004L5.27688 7.71586C5.3908 7.81344 5.44055 7.96655 5.40575 8.11245L5.11121 9.34718C5.02866 9.69328 5.40517 9.96682 5.70881 9.78135L6.7921 9.11966Z" fill="#D29804"/>
</svg>
